<svg version="1.0" xmlns="http://www.w3.org/2000/svg"
 width="385.000000pt" height="386.000000pt" viewBox="0 0 385.000000 386.000000"
 preserveAspectRatio="xMidYMid meet">

<g transform="translate(0.000000,386.000000) scale(0.100000,-0.100000)"
fill="#000000" stroke="none">
<path d="M1750 3833 c-365 -37 -702 -171 -1005 -401 -77 -59 -268 -250 -327
-327 -83 -110 -147 -211 -202 -321 -131 -264 -192 -501 -203 -794 -12 -322 48
-609 187 -898 278 -576 791 -959 1435 -1069 138 -23 452 -23 590 0 690 118
1232 553 1491 1196 88 217 128 435 128 701 0 214 -13 314 -64 505 -200 755
-856 1314 -1645 1405 -84 9 -306 11 -385 3z m25 -734 c280 -87 445 -293 462
-577 16 -282 -119 -547 -360 -707 -36 -24 -56 -43 -53 -52 3 -7 136 -198 296
-424 159 -225 290 -412 290 -414 0 -3 -288 -153 -410 -213 -3 -1 -127 214
-275 478 l-269 480 -133 0 -133 0 0 -59 c0 -69 27 -672 35 -783 l5 -78 -230 0
-230 0 1 78 c0 42 8 230 17 417 17 329 17 365 -3 1108 -11 423 -18 771 -15
773 2 3 212 4 465 2 457 -4 460 -4 540 -29z m1203 -1761 c68 -25 145 -100 180
-175 22 -47 26 -73 27 -138 0 -71 -4 -88 -33 -147 -38 -77 -92 -130 -171 -166
-80 -38 -192 -37 -273 0 -69 32 -136 96 -169 163 -21 43 -24 64 -24 150 0 89
3 106 27 150 48 91 145 165 241 185 54 11 129 3 195 -22z"/>
<path d="M1217 2624 c-4 -88 -10 -264 -13 -393 l-7 -234 159 5 c194 6 253 24
325 97 70 72 101 158 107 297 6 155 -10 210 -86 284 -80 78 -126 92 -323 98
l-156 4 -6 -158z"/>
</g>
</svg>
